<svg width="16" height="16" viewBox="0 0 16 16" fill="none" xmlns="http://www.w3.org/2000/svg">
  <path
    d="M13.5035 14.714C14.3283 13.6731 14.2641 13.274 13.334 12.344C12.7452 11.7563 12.1249 11.1974 11.5636 10.585C11.1081 10.0859 10.6584 10.0451 10.1333 10.4259C10.0805 10.4639 10.0236 10.4931 9.97305 10.5327C8.12627 11.9528 7.42376 11.6563 6.03705 9.25459C4.65034 6.85173 4.74458 6.09575 6.89755 5.20601C6.9573 5.18126 7.01076 5.14626 7.07039 5.12035C7.66264 4.85609 7.85099 4.44656 7.64826 3.80146C7.39785 3.0093 7.22437 2.19305 7.01012 1.39C6.67009 0.118178 6.35579 -0.136213 5.04219 0.0584372C4.5361 0.133061 1.7978 0.783401 1.92424 4.72216C1.99374 6.90447 2.4584 8.65192 3.61369 10.6532C4.76948 12.6551 6.05039 13.9298 7.90518 15.0816C11.2526 17.1612 13.1857 15.1151 13.5034 14.7141L13.5035 14.714Z"
    fill="currentColor" />
</svg>
