<svg width="16" height="16" viewBox="0 0 16 16" fill="none" xmlns="http://www.w3.org/2000/svg">
  <path
    d="M7.99276 0C6.61265 0 5.27818 0.494205 4.23108 1.39316C3.18383 2.29208 2.49311 3.53614 2.28385 4.9004C2.07476 6.2645 2.36091 7.65838 3.09062 8.82991L7.99284 16L12.8951 8.82991C13.6247 7.65845 13.9109 6.26457 13.7018 4.9004C13.4926 3.53614 12.8018 2.29208 11.7546 1.39316C10.7075 0.494243 9.37302 0 7.99291 0H7.99276ZM7.99276 7.90038C7.42932 7.90038 6.88887 7.67661 6.49053 7.27813C6.09204 6.8798 5.86829 6.33935 5.86829 5.77591C5.86829 5.21247 6.09206 4.67202 6.49053 4.27368C6.88887 3.87519 7.42932 3.65143 7.99276 3.65143C8.5562 3.65143 9.09665 3.8752 9.49499 4.27368C9.89348 4.67202 10.1172 5.21247 10.1172 5.77591C10.1172 6.33935 9.89347 6.8798 9.49499 7.27813C9.09665 7.67662 8.5562 7.90038 7.99276 7.90038Z"
    fill="currentColor" />
</svg>
