<svg width="16" height="16" viewBox="0 0 16 16" fill="none" xmlns="http://www.w3.org/2000/svg">
  <path
    d="M5.87112 15.547L12.3002 9.11793C12.3073 9.11111 12.3173 9.1089 12.3241 9.10189C12.627 8.79903 12.7774 8.3992 12.7763 7.99993C12.7774 7.60067 12.6272 7.20102 12.3241 6.89798C12.3169 6.89079 12.3072 6.88894 12.3002 6.88194L5.87112 0.452908C5.26724 -0.150969 4.27925 -0.150969 3.67575 0.452908C3.07225 1.05679 3.07187 2.04478 3.67575 2.64828L9.02745 7.99999L3.67575 13.3517C3.07187 13.9556 3.07187 14.9436 3.67575 15.5471C4.27944 16.1509 5.26762 16.1509 5.87131 15.5473L5.87112 15.547Z"
    fill="currentColor" />
</svg>
