<svg width="16" height="16" viewBox="0 0 16 16" fill="none" xmlns="http://www.w3.org/2000/svg">
  <path
    d="M10.1281 0.452881L3.69898 6.88198C3.69179 6.8888 3.68184 6.89101 3.67502 6.89801C3.37215 7.20088 3.22174 7.60071 3.22285 7.99998C3.22174 8.39925 3.37197 8.7989 3.67502 9.10195C3.6822 9.10914 3.69197 9.11099 3.69898 9.11799L10.1281 15.5471C10.732 16.151 11.72 16.151 12.3235 15.5471C12.927 14.9432 12.9274 13.9552 12.3235 13.3517L6.97218 7.99993L12.3239 2.64817C12.9278 2.04428 12.9278 1.05628 12.3239 0.452771C11.7201 -0.150735 10.7321 -0.151113 10.1282 0.452771L10.1281 0.452881Z"
    fill="currentColor" />
</svg>
